<?xml version="1.0" encoding="UTF-8"?>
<svg width="65px" height="68px" viewBox="0 0 65 68" version="1.1" xmlns="http://www.w3.org/2000/svg" xmlns:xlink="http://www.w3.org/1999/xlink">
    <!-- Generator: Sketch 57.1 (83088) - https://sketch.com -->
    <title>解锁</title>
    <desc>Created with Sketch.</desc>
    <g id="0.9.1-寻客宝" stroke="none" stroke-width="1" fill="none" fill-rule="evenodd">
        <g id="6-应用管理_企业详情_联系方式1" transform="translate(-808.000000, -832.000000)" fill="#999999" fill-rule="nonzero">
            <g id="Group备份" transform="translate(264.000000, 462.000000)">
                <g id="表1备份" transform="translate(24.000000, 154.000000)">
                    <g id="解锁" transform="translate(452.000000, 216.000000)">
                        <g id="编组-8">
                            <path d="M101.004261,38 C102.65767,38 104,39.3437292 104,41.0028675 L104,53.0013753 C103.994369,53.8023753 103.67513,54.5682982 103.112517,55.1306393 C102.549903,55.6929803 101.790005,56.0056722 101,56 C100.209995,56.0056722 99.4500966,55.6929803 98.8874831,55.1306393 C98.3248695,54.5682982 98.0056308,53.8023753 98,53.0013753 L98,41.0028675 C98,39.3437292 99.3423295,38.0043207 101,38.0043207 L101.004261,38 Z M127.116488,26.6114705 C130.350742,26.6043788 132.9815,29.2511556 133,32.5308086 L133,62.0806555 C133,65.3384207 130.371107,67.9872181 127.116488,68 L73.8793126,68 C70.6466958,68.0047369 68.0184952,65.3586438 68,62.0806555 L68,32.5308086 C68.0185004,29.2511556 70.6492579,26.6043788 73.8835121,26.6114705 L83.7229616,26.6114705 L83.7229616,17.4258501 C83.7229616,7.81863654 91.5256493,0 101.121527,0 C110.730004,0.0127755499 118.515894,7.81011951 118.524293,17.4258501 C118.512734,19.0705338 117.189747,20.3949593 115.567838,20.3855191 C113.947565,20.3926026 112.627142,19.0688632 112.615583,17.4258501 C112.607184,11.0764018 107.466985,5.92785516 101.121527,5.91507961 C94.7760693,5.92785516 89.6358703,11.0764018 89.6316708,17.4258501 L89.6316708,26.6114705 L127.116488,26.6114705 Z M74.0292656,61.9956785 L127,62 L126.974915,32.008643 L74,32 L74.0250848,32.008643 L74.0250848,61.9956785 L74.0292656,61.9956785 Z" id="解锁"></path>
                        </g>
                    </g>
                </g>
            </g>
        </g>
    </g>
</svg>